<?xml version="1.0" standalone="no"?>
<!DOCTYPE svg PUBLIC "-//W3C//DTD SVG 1.1//EN" "http://www.w3.org/Graphics/SVG/1.1/DTD/svg11.dtd">
<!--Generator: Xara Designer (www.xara.com), SVG filter version: 6.6.0.8-->
<svg fill="none" fill-rule="evenodd" stroke="black" stroke-width="0.501" stroke-linejoin="bevel" stroke-miterlimit="10" font-family="Times New Roman" font-size="16" style="font-variant-ligatures:none" xmlns:xlink="http://www.w3.org/1999/xlink" xmlns="http://www.w3.org/2000/svg" version="1.1" overflow="visible" width="57.958pt" height="62.968pt" viewBox="72.907 -610.227 57.958 62.968">
 <defs>
  <style type="text/css">@import url('https://themes.googleusercontent.com/fonts/css?family=Open Sans:400,600');
@import url('https://themes.googleusercontent.com/fonts/css?family=Pacifico:400');</style>
 </defs>
 <g id="Layer 1" transform="scale(1 -1)">
  <g id="Group">
   <g id="Group_1" stroke="none" fill-rule="nonzero" stroke-linejoin="miter" stroke-width="0.805">
    <path d="M 91.53,562.129 C 91.53,562.129 89.096,564.533 86.836,565.666 C 84.778,566.698 81.356,569.209 78.379,573.231 C 75.402,577.253 72.907,582.792 72.907,589.747 C 72.907,597.214 74.114,604.745 77.972,609.904 C 78.119,610.101 78.346,610.219 78.591,610.227 C 78.809,610.234 79.021,610.151 79.177,610 C 79.334,609.848 79.422,609.639 79.422,609.421 C 79.422,604.927 80.677,601.147 82.399,598.064 L 82.467,598.437 L 83.112,598.761 L 83.392,598.711 L 83.885,598.184 L 83.757,597.473 L 83.112,597.15 L 82.927,597.183 C 85.838,592.438 89.762,589.502 91.436,588.386 L 91.436,599.754 C 91.436,600.016 91.563,600.262 91.779,600.413 C 93.595,601.685 95.612,603.127 98.058,603.664 L 98.514,603.763 C 98.753,603.815 99.001,603.756 99.191,603.603 C 99.381,603.45 99.491,603.22 99.491,602.977 L 99.491,594.115 L 102.631,594.115 C 102.658,594.02 102.685,593.907 102.715,593.793 C 102.829,593.35 102.966,592.915 103.133,592.492 L 98.686,592.504 C 98.241,592.504 97.88,592.864 97.88,593.309 L 97.88,601.878 C 96.184,601.379 94.593,600.397 93.047,599.318 L 93.047,586.864 C 93.046,586.578 92.893,586.312 92.645,586.168 C 92.397,586.025 92.09,586.023 91.841,586.166 C 91.841,586.166 79.572,593.332 78.097,606.866 C 75.558,602.259 74.518,596.079 74.518,589.747 C 74.518,583.177 76.861,577.991 79.674,574.191 C 82.488,570.39 85.81,567.982 87.558,567.105 C 89.721,566.021 91.427,564.434 92.101,563.784 C 92.775,564.434 94.481,566.021 96.643,567.105 C 97.918,567.744 98.884,568.069 99.615,568.363 C 100.348,568.656 100.819,568.893 101.337,569.414 C 101.488,569.566 101.694,569.651 101.908,569.651 C 102.017,569.651 102.124,569.629 102.222,569.588 C 102.233,568.899 102.247,568.243 102.26,567.663 C 102.143,567.742 102.026,567.83 101.908,567.92 C 101.361,567.502 100.815,567.108 100.217,566.868 C 99.416,566.546 98.544,566.256 97.366,565.666 C 95.106,564.533 92.672,562.129 92.672,562.129 C 92.521,561.977 92.315,561.892 92.101,561.892 C 91.886,561.892 91.681,561.977 91.53,562.129 Z M 91.989,570.817 C 89.964,571.799 87.7,574.452 87.164,575.259 C 86.627,576.066 84.185,581.14 84.185,581.14 C 84.185,581.14 84.839,579.813 88.236,578.371 C 91.632,576.93 93.836,575.315 94.968,573.758 C 96.099,572.201 98.303,571.566 98.303,571.566 C 98.303,571.566 97.052,570.587 96.099,570.184 C 95.146,569.779 94.014,569.837 91.989,570.817 Z M 98.686,577.868 L 98.686,583.6 L 103.452,583.6 C 103.44,583.048 103.428,582.481 103.416,581.913 C 103.235,581.365 103.098,580.856 102.992,580.413 C 102.839,579.776 102.727,579.171 102.642,578.629 C 102.408,577.138 102.308,575.65 102.258,574.414 C 102.234,573.809 102.22,573.202 102.207,572.6 C 102.114,572.524 102.013,572.443 101.908,572.362 C 99.028,574.576 98.686,577.868 98.686,577.868 Z M 85.089,599.689 L 84.81,599.74 L 84.317,600.267 L 84.445,600.978 L 85.089,601.3 L 85.368,601.25 L 85.863,600.723 L 85.735,600.013 L 85.089,599.689 Z M 87.433,601.897 L 87.153,601.948 L 86.661,602.475 L 86.787,603.185 L 87.433,603.508 L 87.711,603.459 L 88.205,602.932 L 88.078,602.221 L 87.433,601.897 Z M 90.065,603.749 L 89.787,603.799 L 89.292,604.326 L 89.42,605.036 L 90.065,605.36 L 90.345,605.31 L 90.838,604.783 L 90.712,604.071 L 90.065,603.749 Z M 92.933,605.209 L 92.655,605.259 L 92.161,605.786 L 92.288,606.497 L 92.933,606.82 L 93.214,606.77 L 93.706,606.242 L 93.58,605.533 L 92.933,605.209 Z M 95.981,606.247 L 95.702,606.298 L 95.208,606.825 L 95.336,607.536 L 95.981,607.859 L 96.261,607.81 L 96.754,607.281 L 96.626,606.572 L 95.981,606.247 Z M 99.147,606.837 L 98.867,606.888 L 98.374,607.415 L 98.501,608.126 L 99.147,608.449 L 99.425,608.4 L 99.919,607.873 L 99.792,607.162 L 99.147,606.837 Z M 102.361,606.988 L 102.083,607.039 L 101.588,607.566 L 101.716,608.275 L 102.361,608.6 L 102.619,608.559 C 102.634,608.35 102.661,608.13 102.695,607.906 C 102.721,607.725 102.75,607.549 102.781,607.377 C 102.756,607.306 102.731,607.233 102.707,607.159 L 102.361,606.988 Z" fill="#13213b" marker-start="none" marker-end="none"/>
    <path d="M 111.101,562.122 C 111.101,562.122 108.665,564.528 106.406,565.661 C 105.228,566.251 104.356,566.541 103.555,566.863 C 103.025,567.075 102.535,567.41 102.053,567.768 C 102.058,568.389 102.066,569.004 102.071,569.622 C 102.208,569.582 102.333,569.51 102.435,569.409 C 102.953,568.889 103.424,568.651 104.156,568.358 C 104.888,568.064 105.854,567.74 107.128,567.1 C 109.29,566.016 110.997,564.427 111.671,563.779 C 112.345,564.428 114.051,566.016 116.213,567.1 C 117.962,567.977 121.284,570.383 124.098,574.184 C 126.911,577.985 129.254,583.171 129.254,589.742 C 129.254,596.073 128.214,602.253 125.675,606.861 C 124.2,593.327 111.931,586.161 111.931,586.161 C 111.682,586.018 111.375,586.02 111.126,586.163 C 110.879,586.307 110.726,586.572 110.725,586.859 L 110.725,599.313 C 109.178,600.391 107.588,601.374 105.892,601.871 L 105.892,593.304 C 105.892,592.859 105.531,592.498 105.086,592.498 L 102.035,592.498 C 102.034,593.053 102.033,593.587 102.032,594.11 L 104.281,594.11 L 104.281,602.971 C 104.281,603.216 104.391,603.447 104.582,603.6 C 104.773,603.752 105.022,603.811 105.261,603.758 L 105.714,603.657 C 108.162,603.122 110.178,601.678 111.993,600.408 C 112.209,600.257 112.336,600.011 112.337,599.748 L 112.337,588.381 C 113.952,589.459 117.666,592.226 120.542,596.685 L 120.347,596.894 L 120.474,597.604 L 121.119,597.928 L 121.288,597.899 C 123.054,601.009 124.35,604.847 124.35,609.416 C 124.35,609.763 124.571,610.071 124.901,610.181 C 125.23,610.29 125.592,610.177 125.8,609.899 C 129.658,604.74 130.865,597.209 130.865,589.742 C 130.865,582.786 128.369,577.247 125.393,573.226 C 122.416,569.204 118.994,566.693 116.936,565.661 C 114.676,564.528 112.242,562.124 112.242,562.124 C 112.091,561.972 111.886,561.887 111.672,561.886 C 111.458,561.886 111.252,561.971 111.101,562.122 Z M 107.815,570.178 C 106.873,570.581 105.637,571.561 105.637,571.561 C 105.637,571.561 107.815,572.196 108.933,573.753 C 110.051,575.31 112.229,576.924 115.584,578.366 C 118.939,579.807 119.587,581.135 119.587,581.135 C 119.587,581.135 117.173,576.061 116.643,575.254 C 116.112,574.447 113.878,571.793 111.877,570.812 C 109.876,569.832 108.757,569.773 107.815,570.178 Z M 102.079,583.594 L 105.086,583.594 L 105.086,577.863 C 105.086,577.863 104.763,574.747 102.088,572.53 C 102.111,576.24 102.098,579.932 102.079,583.594 Z M 119.246,598.933 L 118.965,598.984 L 118.473,599.511 L 118.6,600.222 L 119.246,600.545 L 119.524,600.496 L 120.018,599.969 L 119.891,599.257 L 119.246,598.933 Z M 117.01,601.25 L 116.731,601.3 L 116.237,601.827 L 116.364,602.538 L 117.01,602.861 L 117.29,602.81 L 117.782,602.283 L 117.654,601.574 L 117.01,601.25 Z M 114.465,603.223 L 114.185,603.272 L 113.693,603.799 L 113.82,604.51 L 114.465,604.834 L 114.745,604.783 L 115.238,604.256 L 115.111,603.546 L 114.465,603.223 Z M 111.659,604.802 L 111.381,604.851 L 110.887,605.38 L 111.015,606.089 L 111.659,606.414 L 111.94,606.363 L 112.433,605.836 L 112.307,605.125 L 111.659,604.802 Z M 108.658,605.963 L 108.379,606.013 L 107.885,606.541 L 108.013,607.251 L 108.658,607.575 L 108.938,607.524 L 109.431,606.997 L 109.302,606.286 L 108.658,605.963 Z M 105.523,606.694 L 105.244,606.744 L 104.751,607.271 L 104.879,607.981 L 105.523,608.305 L 105.804,608.254 L 106.296,607.728 L 106.169,607.016 L 105.523,606.694 Z M 102.317,606.983 L 102.084,607.021 C 102.061,607.466 102.031,607.936 101.988,608.424 L 102.317,608.595 L 102.597,608.544 L 103.089,608.017 L 102.963,607.306 L 102.317,606.983 Z" fill="#0aaaa0" marker-start="none" marker-end="none"/>
   </g>
   <text xml:space="preserve" transform="translate(73.192 551.075) scale(1 -1)" kerning="auto" stroke="none" font-size="12.287" font-family="Pacifico" stroke-linecap="round" stroke-linejoin="round" stroke-width="0.307" font-weight="bold"><tspan x="2.65" y="0" fill="#13213b">Sos</tspan><tspan x="23.337" y="0" fill="#0aaaa0">Heroz</tspan></text>
   <g id="Group_2">
    <path d="M 101.421,606.51 C 100.861,606.779 100.887,607.515 101.326,607.81 L 101.371,607.838 L 101.377,607.886 C 101.382,607.919 101.389,607.953 101.399,607.988 C 101.422,608.066 101.448,608.126 101.47,608.173 L 101.478,608.244 C 101.481,608.387 101.476,608.592 101.523,608.812 C 101.609,609.217 102.008,609.475 102.413,609.389 C 102.818,609.303 103.076,608.904 102.99,608.499 L 102.994,608.433 C 103.205,608.287 103.337,608.059 103.337,607.801 L 103.337,607.726 C 103.337,607.409 103.139,607.135 102.856,607.025 L 102.814,607.011 L 102.798,606.971 C 102.749,606.856 102.671,606.735 102.548,606.63 C 102.521,606.606 102.491,606.585 102.461,606.566 C 102.325,606.48 102.193,606.456 102.146,606.448 C 102.082,606.437 102.024,606.434 101.986,606.433 C 101.942,606.431 101.9,606.432 101.864,606.433 L 101.82,606.43 C 101.742,606.426 101.588,606.429 101.421,606.51 Z" stroke="none" fill="#000000" stroke-linejoin="miter" stroke-width="1.854" marker-start="none" marker-end="none"/>
   </g>
  </g>
 </g>
</svg>
