<?xml version="1.0" standalone="no"?>
<!DOCTYPE svg PUBLIC "-//W3C//DTD SVG 1.1//EN" "http://www.w3.org/Graphics/SVG/1.1/DTD/svg11.dtd">
<!--Generator: Xara Designer (www.xara.com), SVG filter version: 6.6.0.8-->
<svg fill="none" fill-rule="evenodd" stroke="black" stroke-width="0.501" stroke-linejoin="bevel" stroke-miterlimit="10" font-family="Times New Roman" font-size="16" style="font-variant-ligatures:none" xmlns:xlink="http://www.w3.org/1999/xlink" xmlns="http://www.w3.org/2000/svg" version="1.1" overflow="visible" width="42.998pt" height="35.863pt" viewBox="168.064 -605.071 42.998 35.863">
 <defs>
  <style type="text/css">@import url('https://themes.googleusercontent.com/fonts/css?family=Open Sans:400,600');</style>
 </defs>
 <g id="Layer 1" transform="scale(1 -1)">
  <g id="Group">
   <path d="M 181.88,569.388 C 181.88,569.388 180.075,571.172 178.398,572.012 C 176.871,572.777 174.332,574.641 172.124,577.625 C 169.915,580.608 168.064,584.717 168.064,589.877 C 168.064,595.417 168.96,601.005 171.821,604.832 C 171.931,604.977 172.099,605.065 172.281,605.071 C 172.443,605.076 172.6,605.015 172.716,604.902 C 172.832,604.79 172.898,604.635 172.898,604.473 C 172.898,601.139 173.828,598.334 175.106,596.047 L 175.156,596.324 L 175.634,596.565 L 175.843,596.527 L 176.209,596.136 L 176.113,595.608 L 175.634,595.369 L 175.497,595.394 C 177.658,591.873 180.569,589.695 181.81,588.868 L 181.81,597.301 C 181.81,597.496 181.905,597.678 182.065,597.79 C 183.412,598.734 184.908,599.804 186.724,600.202 L 187.062,600.275 C 187.238,600.314 187.423,600.27 187.563,600.157 C 187.704,600.043 187.787,599.873 187.787,599.692 L 187.787,593.118 L 190.116,593.118 C 190.136,593.047 190.156,592.963 190.178,592.879 C 190.263,592.55 190.364,592.227 190.489,591.914 L 187.189,591.922 C 186.859,591.922 186.591,592.19 186.591,592.52 L 186.591,598.877 C 185.333,598.507 184.153,597.778 183.006,596.978 L 183.006,587.739 C 183.005,587.526 182.891,587.328 182.708,587.222 C 182.523,587.116 182.296,587.115 182.111,587.221 C 182.111,587.221 173.009,592.537 171.915,602.578 C 170.031,599.159 169.26,594.575 169.26,589.877 C 169.26,585.003 170.997,581.156 173.085,578.337 C 175.172,575.516 177.636,573.73 178.934,573.08 C 180.538,572.276 181.804,571.097 182.304,570.616 C 182.804,571.097 184.07,572.276 185.673,573.08 C 186.619,573.554 187.336,573.795 187.878,574.013 C 188.422,574.23 188.771,574.406 189.156,574.793 C 189.268,574.905 189.42,574.968 189.58,574.968 C 189.66,574.968 189.74,574.952 189.812,574.921 C 189.82,574.411 189.831,573.924 189.84,573.493 C 189.753,573.552 189.666,573.618 189.58,573.684 C 189.174,573.375 188.769,573.081 188.325,572.904 C 187.731,572.665 187.084,572.45 186.209,572.012 C 184.534,571.172 182.728,569.388 182.728,569.388 C 182.615,569.275 182.463,569.212 182.304,569.212 C 182.144,569.212 181.992,569.275 181.88,569.388 Z M 182.22,575.833 C 180.718,576.562 179.039,578.53 178.641,579.129 C 178.242,579.728 176.431,583.492 176.431,583.492 C 176.431,583.492 176.916,582.507 179.436,581.438 C 181.956,580.368 183.591,579.171 184.431,578.015 C 185.27,576.86 186.905,576.389 186.905,576.389 C 186.905,576.389 185.977,575.663 185.27,575.363 C 184.563,575.063 183.723,575.106 182.22,575.833 Z M 187.189,581.064 L 187.189,585.317 L 190.724,585.317 C 190.716,584.908 190.707,584.487 190.698,584.066 C 190.564,583.659 190.462,583.281 190.384,582.952 C 190.27,582.48 190.187,582.031 190.124,581.629 C 189.95,580.523 189.876,579.419 189.839,578.502 C 189.821,578.053 189.811,577.603 189.801,577.156 C 189.733,577.1 189.657,577.039 189.58,576.98 C 187.442,578.622 187.189,581.064 187.189,581.064 Z M 177.102,597.253 L 176.894,597.291 L 176.529,597.682 L 176.624,598.209 L 177.102,598.448 L 177.309,598.411 L 177.676,598.02 L 177.581,597.494 L 177.102,597.253 Z M 178.84,598.891 L 178.633,598.929 L 178.267,599.32 L 178.361,599.847 L 178.84,600.087 L 179.047,600.05 L 179.413,599.659 L 179.319,599.132 L 178.84,598.891 Z M 180.793,600.265 L 180.587,600.302 L 180.22,600.694 L 180.315,601.22 L 180.793,601.46 L 181.001,601.423 L 181.366,601.032 L 181.273,600.504 L 180.793,600.265 Z M 182.921,601.348 L 182.715,601.385 L 182.348,601.777 L 182.442,602.304 L 182.921,602.544 L 183.129,602.506 L 183.494,602.115 L 183.402,601.589 L 182.921,601.348 Z M 185.182,602.119 L 184.975,602.156 L 184.609,602.547 L 184.704,603.074 L 185.182,603.314 L 185.391,603.278 L 185.755,602.886 L 185.661,602.359 L 185.182,602.119 Z M 187.531,602.556 L 187.323,602.593 L 186.957,602.985 L 187.052,603.513 L 187.531,603.752 L 187.737,603.716 L 188.104,603.325 L 188.009,602.797 L 187.531,602.556 Z M 189.916,602.668 L 189.709,602.706 L 189.342,603.097 L 189.437,603.623 L 189.916,603.864 L 190.107,603.833 C 190.118,603.678 190.138,603.515 190.163,603.349 C 190.183,603.215 190.204,603.085 190.227,602.957 C 190.209,602.904 190.19,602.85 190.172,602.795 L 189.916,602.668 Z" fill-rule="nonzero" stroke-linejoin="miter" stroke="none" stroke-width="0.598" fill="#13213b" marker-start="none" marker-end="none"/>
   <path d="M 196.4,569.383 C 196.4,569.383 194.592,571.168 192.917,572.008 C 192.043,572.446 191.395,572.661 190.801,572.9 C 190.408,573.057 190.044,573.305 189.686,573.571 C 189.691,574.032 189.696,574.488 189.7,574.947 C 189.802,574.917 189.895,574.864 189.97,574.788 C 190.355,574.403 190.704,574.227 191.247,574.009 C 191.79,573.791 192.507,573.55 193.452,573.076 C 195.056,572.272 196.322,571.093 196.822,570.612 C 197.322,571.094 198.588,572.272 200.192,573.076 C 201.49,573.727 203.954,575.511 206.041,578.331 C 208.129,581.151 209.867,584.999 209.867,589.873 C 209.867,594.57 209.095,599.155 207.211,602.573 C 206.117,592.533 197.015,587.217 197.015,587.217 C 196.83,587.111 196.603,587.112 196.418,587.219 C 196.235,587.325 196.121,587.522 196.12,587.735 L 196.12,596.974 C 194.973,597.774 193.793,598.504 192.535,598.872 L 192.535,592.517 C 192.535,592.186 192.268,591.919 191.937,591.919 L 189.674,591.919 C 189.673,592.33 189.672,592.726 189.671,593.114 L 191.339,593.114 L 191.339,599.688 C 191.339,599.869 191.422,600.041 191.563,600.155 C 191.704,600.268 191.89,600.311 192.067,600.272 L 192.403,600.197 C 194.219,599.8 195.715,598.729 197.061,597.787 C 197.221,597.674 197.316,597.492 197.316,597.297 L 197.316,588.863 C 198.514,589.663 201.27,591.717 203.403,595.025 L 203.259,595.18 L 203.354,595.706 L 203.832,595.946 L 203.957,595.925 C 205.267,598.232 206.228,601.079 206.228,604.469 C 206.228,604.727 206.393,604.956 206.638,605.036 C 206.882,605.118 207.15,605.034 207.305,604.828 C 210.166,601 211.062,595.413 211.062,589.873 C 211.062,584.713 209.211,580.604 207.002,577.621 C 204.794,574.636 202.255,572.774 200.728,572.008 C 199.051,571.168 197.246,569.384 197.246,569.384 C 197.134,569.271 196.982,569.208 196.823,569.208 C 196.664,569.208 196.512,569.27 196.4,569.383 Z M 193.961,575.359 C 193.263,575.659 192.346,576.386 192.346,576.386 C 192.346,576.386 193.961,576.856 194.791,578.012 C 195.621,579.167 197.236,580.364 199.725,581.434 C 202.215,582.503 202.695,583.488 202.695,583.488 C 202.695,583.488 200.904,579.724 200.511,579.125 C 200.117,578.526 198.46,576.558 196.975,575.83 C 195.491,575.102 194.66,575.059 193.961,575.359 Z M 189.706,585.313 L 191.937,585.313 L 191.937,581.06 C 191.937,581.06 191.697,578.748 189.713,577.104 C 189.73,579.856 189.72,582.596 189.706,585.313 Z M 202.442,596.692 L 202.234,596.73 L 201.868,597.121 L 201.963,597.649 L 202.442,597.888 L 202.649,597.852 L 203.015,597.461 L 202.92,596.933 L 202.442,596.692 Z M 200.783,598.411 L 200.577,598.448 L 200.21,598.839 L 200.304,599.367 L 200.783,599.606 L 200.991,599.568 L 201.356,599.178 L 201.262,598.651 L 200.783,598.411 Z M 198.895,599.875 L 198.687,599.911 L 198.322,600.302 L 198.417,600.829 L 198.895,601.07 L 199.103,601.032 L 199.469,600.642 L 199.374,600.114 L 198.895,599.875 Z M 196.814,601.047 L 196.608,601.083 L 196.241,601.475 L 196.335,602.001 L 196.814,602.242 L 197.022,602.204 L 197.387,601.814 L 197.294,601.286 L 196.814,601.047 Z M 194.587,601.908 L 194.38,601.944 L 194.013,602.336 L 194.109,602.863 L 194.587,603.103 L 194.794,603.066 L 195.161,602.675 L 195.065,602.148 L 194.587,601.908 Z M 192.261,602.45 L 192.054,602.487 L 191.688,602.878 L 191.783,603.405 L 192.261,603.645 L 192.469,603.607 L 192.834,603.217 L 192.74,602.689 L 192.261,602.45 Z M 189.883,602.665 L 189.71,602.693 C 189.693,603.023 189.67,603.371 189.639,603.734 L 189.883,603.86 L 190.091,603.822 L 190.456,603.431 L 190.362,602.904 L 189.883,602.665 Z" fill-rule="nonzero" stroke-linejoin="miter" stroke="none" stroke-width="0.598" fill="#0aaaa0" marker-start="none" marker-end="none"/>
   <g id="Group_1">
    <path d="M 189.724,601.834 C 189.312,601.874 189.01,602.241 189.05,602.653 C 189.078,602.942 189.056,603.273 189.062,603.626 C 189.068,604.04 189.408,604.371 189.822,604.365 C 190.236,604.359 190.567,604.019 190.561,603.605 C 190.557,603.272 190.581,602.899 190.543,602.508 C 190.503,602.096 190.136,601.794 189.724,601.834 Z" stroke="none" fill="#000000" stroke-linejoin="miter" stroke-width="1.854" marker-start="none" marker-end="none"/>
   </g>
  </g>
 </g>
</svg>
